<?xml version="1.0" standalone="no"?>
<!DOCTYPE svg PUBLIC "-//W3C//DTD SVG 20010904//EN"
 "http://www.w3.org/TR/2001/REC-SVG-20010904/DTD/svg10.dtd">
<svg version="1.0" xmlns="http://www.w3.org/2000/svg"
 width="1000.000000pt" height="1000.000000pt" viewBox="0 0 1000.000000 1000.000000"
 preserveAspectRatio="xMidYMid meet">
<metadata>
Created by potrace 1.14, written by Peter Selinger 2001-2017
</metadata>
<g transform="translate(0.000000,1000.000000) scale(0.100000,-0.100000)"
fill="#000000" stroke="none">
<path d="M4691 8008 c7 -13 116 -183 243 -378 126 -195 232 -368 234 -383 5
-30 -3 -43 -146 -245 -46 -65 -68 -104 -60 -107 7 -2 67 -18 133 -35 297 -78
593 -229 855 -438 118 -94 321 -297 420 -419 40 -51 77 -93 80 -93 5 0 63 73
212 267 23 30 -123 240 -266 386 -48 48 -82 87 -76 87 23 0 137 -54 190 -90
80 -54 166 -152 228 -258 30 -50 60 -96 68 -102 7 -7 130 -30 271 -51 392 -59
435 -67 428 -79 -2 -4 -59 -26 -124 -50 -66 -23 -126 -49 -133 -57 -6 -8 -11
-31 -10 -51 2 -57 -15 -96 -51 -117 -17 -10 -62 -43 -99 -72 l-67 -54 -51 35
c-75 52 -126 50 -209 -5 -93 -62 -232 -189 -265 -242 -70 -114 -31 -268 86
-340 62 -39 157 -48 225 -22 78 30 224 191 279 308 39 84 29 161 -29 224 l-20
23 28 22 c16 13 51 40 79 60 115 83 116 85 116 142 0 29 6 60 13 69 6 10 77
42 156 71 78 30 145 57 148 60 6 6 15 -9 -492 832 -235 390 -443 726 -463 746
-20 21 -50 42 -66 48 -17 5 -139 28 -271 50 -258 43 -409 69 -575 100 -58 10
-197 35 -310 55 -113 20 -313 56 -446 81 -285 52 -279 52 -263 22z m2238
-2312 c47 -25 57 -43 36 -66 -10 -11 -23 -20 -29 -20 -16 0 -137 -123 -140
-142 -1 -9 -8 -23 -15 -32 -13 -15 -15 -15 -32 0 -10 9 -37 46 -61 82 l-42 65
44 39 c91 78 178 105 239 74z m146 -151 c14 -34 14 -50 6 -83 -16 -59 -91
-166 -119 -170 -24 -4 -118 46 -147 77 -14 17 -15 23 -5 36 7 8 19 15 28 15
14 0 133 121 141 144 2 6 13 21 24 33 19 21 22 22 38 7 10 -9 26 -35 34 -59z
m-125 27 c0 -5 -24 -35 -53 -67 -36 -40 -57 -56 -66 -51 -9 6 3 25 45 67 56
57 74 69 74 51z m-183 -203 c28 -25 81 -61 118 -81 l66 -35 -46 -51 c-65 -72
-118 -95 -205 -90 -57 3 -77 9 -112 33 -82 57 -121 182 -83 270 8 20 37 60 66
90 l51 54 47 -72 c26 -40 70 -93 98 -118z"/>
<path d="M2880 6610 l0 -470 198 2 197 3 3 257 2 258 603 2 602 3 0 205 0 205
-802 3 -803 2 0 -470z"/>
<path d="M4857 6625 c-154 -29 -287 -100 -415 -219 -163 -153 -246 -336 -245
-541 2 -194 51 -317 269 -661 76 -121 153 -248 171 -284 61 -118 51 -205 -27
-258 -30 -21 -44 -23 -96 -19 -195 15 -377 207 -560 592 -66 141 -77 152 -135
143 -16 -2 -98 -86 -256 -261 -128 -142 -233 -262 -233 -267 0 -28 319 -363
445 -469 296 -247 627 -384 925 -385 146 0 244 25 395 99 181 88 293 195 366
350 88 188 90 382 5 620 -38 106 -71 164 -206 360 -118 171 -220 368 -220 424
0 51 19 90 62 126 28 24 38 27 81 22 143 -17 361 -227 497 -479 23 -43 53 -87
67 -98 29 -22 77 -26 109 -7 23 13 454 457 454 467 0 17 -170 206 -262 291
-266 246 -474 373 -716 436 -124 32 -353 41 -475 18z"/>
<path d="M2880 4590 l0 -1380 1915 0 1915 0 0 874 0 874 -52 18 c-107 34 -151
64 -255 171 l-103 105 0 -811 0 -811 -1515 0 -1515 0 0 1170 0 1170 -195 0
-195 0 0 -1380z"/>
<path d="M2767 3003 c-4 -3 -7 -233 -7 -510 l0 -504 118 3 117 3 2 217 c2 230
6 250 53 293 33 30 110 28 144 -4 40 -37 46 -79 46 -304 l0 -208 118 3 117 3
0 250 c0 248 0 250 -26 306 -78 166 -265 209 -414 95 -18 -14 -35 -26 -37 -26
-2 0 -2 73 0 162 2 90 0 178 -3 196 l-6 32 -108 0 c-59 0 -111 -3 -114 -7z"/>
<path d="M4560 2500 l0 -510 115 0 115 0 0 509 0 509 -115 1 -115 2 0 -511z"/>
<path d="M1453 2955 c-129 -36 -210 -103 -238 -198 -19 -63 -19 -81 0 -143 29
-99 84 -142 283 -225 125 -52 162 -81 162 -128 0 -34 -33 -79 -68 -92 -34 -13
-253 6 -310 27 -24 9 -45 15 -46 13 -6 -8 -47 -182 -43 -185 8 -8 184 -43 248
-49 138 -14 296 29 381 103 67 59 98 171 74 264 -24 90 -93 154 -224 208 -170
70 -210 91 -222 119 -15 38 1 76 42 98 45 25 192 24 266 -1 29 -10 54 -16 56
-15 9 13 46 161 41 168 -25 41 -298 65 -402 36z"/>
<path d="M6497 2963 c-34 -5 -40 -17 -72 -144 -14 -57 -35 -133 -47 -168 -17
-53 -18 -65 -7 -72 13 -8 105 -3 121 7 8 5 198 367 198 378 0 6 -146 6 -193
-1z"/>
<path d="M7660 2475 l0 -475 110 0 110 0 0 475 0 475 -110 0 -110 0 0 -475z"/>
<path d="M8010 2865 l0 -85 145 0 145 0 0 -390 0 -390 110 0 110 0 0 390 0
390 145 0 145 0 0 85 0 85 -400 0 -400 0 0 -85z"/>
<path d="M3900 2702 c-169 -45 -272 -199 -257 -387 14 -189 126 -314 307 -345
79 -14 188 5 254 44 56 32 123 106 149 164 32 69 31 242 -2 326 -44 110 -134
183 -256 205 -78 15 -117 13 -195 -7z m204 -175 c43 -28 61 -83 61 -182 0
-148 -47 -217 -150 -217 -60 0 -104 27 -135 83 -22 38 -25 56 -25 134 1 97 12
130 59 174 44 41 134 45 190 8z"/>
<path d="M2313 2690 c-91 -24 -125 -42 -183 -96 -123 -115 -145 -322 -49 -467
80 -122 253 -175 469 -144 84 12 84 12 70 100 l-13 76 -82 -6 c-109 -8 -148 1
-195 43 -137 124 -56 337 129 338 31 1 75 -3 98 -7 l41 -8 17 76 c20 90 22 88
-70 104 -86 15 -149 13 -232 -9z"/>
<path d="M5185 2704 c-99 -21 -164 -38 -182 -50 l-22 -14 21 -62 c11 -35 22
-65 24 -67 1 -1 30 6 63 18 67 23 197 29 232 11 18 -10 49 -59 49 -78 0 -5
-46 -12 -102 -14 -121 -6 -193 -30 -258 -85 -52 -45 -79 -102 -80 -166 0 -121
86 -210 217 -223 58 -6 99 4 206 50 37 16 37 16 47 -9 10 -26 11 -26 111 -23
l101 3 -1 235 c-1 185 -5 246 -17 287 -30 97 -109 161 -224 183 -52 10 -146
12 -185 4z m191 -467 c-8 -51 -21 -69 -63 -90 -95 -50 -194 30 -138 111 14 19
102 53 170 64 26 5 39 -30 31 -85z"/>
<path d="M6155 2701 c-48 -12 -90 -37 -122 -74 l-31 -35 -5 40 c-3 23 -11 45
-19 49 -7 5 -52 9 -100 9 l-88 0 0 -350 0 -350 120 0 120 0 0 204 c0 194 1
204 23 237 30 45 80 69 145 69 l52 0 0 105 0 105 -32 -1 c-18 -1 -46 -4 -63
-8z"/>
<path d="M6830 2692 c-135 -45 -190 -107 -190 -212 0 -103 50 -153 216 -215
79 -30 104 -49 104 -81 0 -55 -80 -68 -207 -35 -45 11 -86 21 -91 21 -5 0 -15
-26 -21 -57 -6 -32 -14 -68 -17 -80 -5 -19 1 -23 73 -39 115 -26 261 -24 336
5 113 44 164 118 155 225 -8 96 -31 116 -250 214 -62 28 -68 34 -68 60 0 48
20 56 108 47 146 -15 143 -16 157 32 29 97 31 90 -27 108 -85 26 -213 29 -278
7z"/>
</g>
</svg>
